Coordinates
version=1
nRows=19
nColumns=36
inDegrees=yes

Units are S.I. units (second, meters, Newtons, ...)
If the header above contains a line with 'inDegrees', this indicates whether rotational values are in degrees (yes) or radians (no).

endheader
time	pelvis_tilt	pelvis_list	pelvis_rotation	pelvis_tx	pelvis_ty	pelvis_tz	hip_flexion_r	hip_adduction_r	hip_rotation_r	knee_angle_r	knee_angle_r_beta	ankle_angle_r	subtalar_angle_r	mtp_angle_r	hip_flexion_l	hip_adduction_l	hip_rotation_l	knee_angle_l	knee_angle_l_beta	ankle_angle_l	subtalar_angle_l	mtp_angle_l	lumbar_extension	lumbar_bending	lumbar_rotation	arm_flex_r	arm_add_r	arm_rot_r	elbow_flex_r	pro_sup_r	arm_flex_l	arm_add_l	arm_rot_l	elbow_flex_l	pro_sup_l
      0.00000000	      1.71079417	      1.35098975	      4.98256219	      1.04120977	      0.93192916	      0.74633842	    -17.41893355	      0.51870582	      5.62222434	      5.42090357	      0.09461262	     12.47069350	      1.60302463	     -6.73680155	     28.08803133	     -0.02587382	     -0.98900472	     13.27364262	      0.23166877	      3.73917960	     -4.08443652	     -6.73680155	    -18.64304445	     -0.27716101	      7.03372915	      8.15864995	    -16.01207266	      5.29125165	     36.13315904	     80.67968761	      4.60728497	     -8.40428753	     -1.08020584	     16.65010495	     76.63532546
      0.01666670	      0.31874390	      1.75084457	      4.04515564	      1.04358533	      0.92179012	      0.74482869	    -17.17807788	     -0.29106225	      8.53843614	      5.44849911	      0.09509425	     11.82933824	     -1.84159851	     -6.77828744	     29.01114236	      0.58215785	     -0.04684183	     10.34471044	      0.18054926	      4.94039159	     -3.94008672	     -6.77828744	    -19.27799927	     -1.22363534	      7.70370787	      6.52473440	    -16.61390612	      3.50908896	     41.68880723	     77.34614759	      4.02371003	     -8.34296252	     -5.50220665	     17.79867788	     74.65052863
      0.03333330	     -1.40778954	      2.92584385	      3.62948784	      1.04530127	      0.91155138	      0.74613570	    -16.25005777	     -1.89349776	      8.82458001	      6.59120855	      0.11503829	     13.73040050	     -2.38490871	     -6.81384835	     30.27198141	      1.97801672	      0.62205352	      9.41605277	      0.16434112	      4.13687611	     -3.82491656	     -6.81384835	    -17.68489842	     -2.88485585	      7.54750173	      6.74902261	    -15.83669191	      3.28655537	     42.64544376	     75.29667677	      3.29739492	     -9.26918140	     -7.34749113	     17.50368698	     73.46957241
      0.05000000	     -1.91470049	      3.09450035	      3.15307117	      1.04858608	      0.90256101	      0.74601318	    -15.89501600	     -2.30004682	      9.13784400	      8.92226361	      0.15572288	     15.06672012	     -2.66942507	     -6.84899609	     30.67051527	      2.32691286	      1.61351133	     11.33212439	      0.19778288	      4.69119879	     -3.89760278	     -6.84899609	    -17.19222494	     -3.53389192	      7.93897320	      6.67917524	    -15.64894789	      3.30225017	     43.41523598	     74.79239680	      2.30055194	     -9.97013218	     -7.59175307	     18.33129403	     73.05664969
      0.06666670	     -2.06599346	      2.97118430	      2.63095088	      1.05280552	      0.89691828	      0.74416809	    -15.53907455	     -2.31130203	      9.78948180	     12.17376093	      0.21247221	     14.87351582	     -3.70403457	     -6.87153195	     30.84232053	      2.46729469	      2.33744642	     14.42492346	      0.25176241	      4.25848767	     -4.51983008	     -6.87153195	    -17.09984582	     -3.94069461	      8.48359323	      6.47474613	    -15.52157741	      3.22175746	     43.73674433	     73.68575731	      1.51544373	    -10.32816989	     -8.40639287	     18.79313786	     72.27060270
      0.08333330	     -2.48429368	      3.00730913	      2.30514616	      1.05754027	      0.89219821	      0.74112159	    -14.76564049	     -2.57467087	      9.80520360	     15.77828036	      0.27538294	     13.84260898	     -4.46007829	     -6.91409344	     31.24201883	      2.86130335	      2.89426485	     17.38128625	      0.30336067	      3.18795650	     -5.35110225	     -6.91409344	    -16.47599411	     -4.34411357	      9.15898393	      5.46099894	    -15.54395461	      2.93365904	     44.42340727	     72.40395205	      0.86213467	    -10.62032731	     -8.48944239	     18.82406701	     71.95269861
      0.10000000	     -2.85583344	      3.23502966	      1.96391864	      1.06188079	      0.89150577	      0.73915624	    -13.86427396	     -2.99504832	      9.96999806	     19.47097814	      0.33983268	     12.19691257	     -5.68988277	     -6.98694837	     31.38535288	      3.26075511	      2.90480923	     19.89547449	      0.34724154	      2.10644398	     -5.78249692	     -6.98694837	    -15.92032822	     -4.96273213	      9.64238471	      4.70387696	    -15.35589591	      2.58927008	     44.32723892	     71.47800970	      0.59596507	    -11.13678948	     -7.81488136	     18.72222145	     71.91449699
      0.11666670	     -3.12805775	      3.56795703	      1.84874873	      1.06728972	      0.89416528	      0.73756808	    -12.96976219	     -3.47201281	      9.62509559	     23.06019879	      0.40247639	     10.09025625	     -6.52917938	     -7.05784128	     31.08811783	      3.77456501	      3.05619232	     21.93080648	      0.38276478	      1.29023816	     -6.44570242	     -7.05784128	    -15.36461063	     -5.74240811	     10.01571022	      3.85552318	    -14.89989676	      2.32133560	     43.82363492	     70.73135437	      0.80238089	    -11.90698196	     -6.68459686	     18.65400104	     71.94978116
      0.13333330	     -3.33613641	      3.99506745	      1.78294174	      1.07289912	      0.90051003	      0.73385568	    -12.05921128	     -4.06210835	      9.10384253	     26.48010997	      0.46216511	      6.93700885	     -6.98777304	     -7.14097597	     30.35462388	      4.37240110	      3.10194906	     23.44004992	      0.40910605	      0.68593701	     -7.14226225	     -7.14097597	    -14.67654585	     -6.40368950	     11.12919855	      2.40763984	    -14.51420072	      0.82335653	     43.15690764	     71.39547679	      1.91147899	    -12.58871751	     -3.12470859	     17.51057725	     74.33132928
      0.15000000	     -3.25615834	      4.40262124	      1.85359550	      1.07849473	      0.90807066	      0.72639883	    -11.32820771	     -4.69844483	      8.25580766	     29.86567832	      0.52125442	      2.40473974	     -7.02947726	     -7.17974894	     28.97580525	      5.11279626	      3.40977494	     24.38733463	      0.42563929	      0.48662634	     -7.87787446	     -7.17974894	    -14.24939824	     -6.79418625	     10.81399913	      2.04714565	    -13.92947774	      0.41824539	     41.18535775	     71.10787578	      1.96217795	    -12.75683488	     -2.91632391	     17.30310038	     73.84023472
      0.16666670	     -2.96903134	      4.73511460	      2.01485927	      1.08331851	      0.91445375	      0.71728223	    -10.33591898	     -5.30831797	      7.31160556	     33.77614476	      0.58950493	     -3.30757454	     -7.09481372	     -7.21862114	     27.11374417	      5.91861499	      3.94624658	     24.84655197	      0.43365414	      0.68841967	     -8.49248413	     -7.21862114	    -14.01490999	     -6.90317849	     10.42982579	      1.49843134	    -13.60228172	      0.15595862	     39.11570773	     70.84410388	      1.92514788	    -12.60929271	     -2.49378540	     17.16552683	     73.37649975
      0.18333330	     -2.62016061	      4.92108230	      2.20395734	      1.08595312	      0.91634207	      0.71034258	     -8.56949819	     -5.75299756	      6.46872698	     38.71598254	      0.67572137	     -8.83676312	     -7.61664294	     -7.22894696	     25.09987274	      6.58869665	      4.51383073	     25.03500418	      0.43694325	      1.36645354	     -8.85371209	     -7.22894696	    -13.94547070	     -6.79087912	      9.96019046	      0.79818797	    -13.56308780	      0.00722678	     37.70813859	     70.97410499	      1.81620888	    -12.28808914	     -1.97520494	     17.20467104	     73.51229437
      0.20000000	     -2.19971288	      4.77944348	      2.20967764	      1.08540113	      0.91734308	      0.70748839	     -6.04665540	     -5.75619307	      6.00644054	     44.36713916	      0.77435266	    -12.54691769	     -8.53632843	     -7.24589921	     23.08775193	      6.74491170	      4.83952223	     25.07644003	      0.43766644	      2.38464906	     -8.98594726	     -7.24589921	    -14.12287172	     -6.38299885	      9.42728201	      0.75179846	    -13.61138941	      0.24557212	     35.44215515	     71.51113687	      1.89081842	    -11.92076698	     -0.68966759	     17.07710496	     73.88179255
      0.21666670	     -1.59972388	      4.44364186	      1.94197916	      1.08353839	      0.92151255	      0.70775195	     -3.32086825	     -5.44153064	      5.69553133	     49.73265611	      0.86799859	    -14.05587285	     -9.58705530	     -7.25225974	     20.81134427	      6.43328118	      4.76727991	     24.62631085	      0.42981021	      3.07342707	     -9.18775486	     -7.25225974	    -14.97696746	     -5.87349737	      8.94916028	      0.56101189	    -13.81834915	      0.45319416	     34.59974345	     71.71337773	      2.12376551	    -11.46634053	     -0.16561551	     17.41883536	     73.99883977
      0.23333330	     -1.08956230	      3.87341626	      1.65572415	      1.08252305	      0.92656411	      0.70877982	     -0.59622151	     -4.76583742	      5.23598933	     54.08230529	      0.94391429	    -13.91413308	    -10.54801945	     -7.26891813	     18.64415235	      5.75790628	      4.65998020	     24.01088071	      0.41906892	      3.64093114	     -9.17172161	     -7.26891813	    -15.77946876	     -5.23300264	      8.48948809	      0.58822134	    -13.94042975	      1.13151245	     33.06256341	     71.59043217	      2.48966361	    -11.25830056	      0.72585538	     18.03846899	     73.46104175
      0.25000000	     -0.68059732	      3.22838887	      1.32022270	      1.08240361	      0.93064079	      0.70923843	      1.91290631	     -3.91741232	      4.85292050	     57.11644237	      0.99686998	    -13.20502305	    -11.43807314	     -7.30038562	     16.53347270	      4.99470444	      4.64724893	     23.25691553	      0.40590975	      3.77800730	     -9.56571397	     -7.30038562	    -16.37516240	     -4.51766293	      7.57344104	      1.02851011	    -14.05945909	      2.92054781	     31.27877891	     73.07711647	      2.63520672	    -11.37710888	      2.60787099	     18.56237102	     73.86538812
      0.26666670	     -0.22781463	      2.61587131	      0.92937326	      1.08275237	      0.93189886	      0.70902901	      4.14684580	     -3.10807807	      4.66161003	     59.13238547	      1.03205482	    -11.95299110	    -12.35427795	     -7.31448130	     14.30440726	      4.27545393	      4.48644454	     22.43160639	      0.39150539	      4.14831348	     -9.58250099	     -7.31448130	    -17.08462243	     -3.90495070	      7.04688966	      0.86541261	    -13.88695029	      2.94381785	     30.65820325	     72.90963469	      3.15058079	    -11.34951245	      2.59034757	     19.29082579	     73.37016210
      0.28333330	     -0.09350053	      1.93928360	      0.63015246	      1.08329780	      0.92990438	      0.70828640	      6.68287428	     -2.31762930	      4.58085243	     60.24191017	      1.05141968	     -9.84437732	    -13.76427974	     -7.31753496	     12.41685050	      3.59017437	      4.52516346	     21.77939576	      0.38012217	      4.68258788	     -9.79434926	     -7.31753496	    -17.34076301	     -3.16651983	      6.41521286	      0.50046357	    -13.80495298	      3.00667242	     30.62778735	     72.86925261	      3.72124448	    -11.36046602	      2.69425337	     19.97253800	     73.31477744
      0.30000000	      0.12687457	      1.38291503	     -0.09546386	      1.08298689	      0.92902216	      0.70817208	      9.25888791	     -1.70710710	      4.96266958	     60.61078611	      1.05785778	     -6.51624002	    -14.92194377	     -7.32305366	     10.29278676	      2.92526321	      4.09600591	     20.94018455	      0.36547517	      5.33385967	     -9.94717995	     -7.32305366	    -17.66170202	     -2.64871531	      6.05261013	      0.53622733	    -13.72234002	      3.27319026	     30.08912023	     73.12939048	      4.24342307	    -11.53703373	      3.22381016	     21.31668477	     73.56050009
